{
  "accessors": [
    {
      "bufferView": 2,
      "componentType": 5126,
      "count": 846,
      "max": [
        1.0,
        -0.4325979948043823,
        0.9993469715118408
      ],
      "min": [
        -1.0,
        -0.6751319766044617,
        -0.9993469715118408
      ],
      "type": "VEC3"
    },
    {
      "bufferView": 2,
      "byteOffset": 10152,
      "componentType": 5126,
      "count": 846,
      "max": [
        1.0,
        1.0,
        1.0
      ],
      "min": [
        -1.0,
        -1.0,
        -1.0
      ],
      "type": "VEC3"
    },
    {
      "bufferView": 3,
      "componentType": 5126,
      "count": 846,
      "max": [
        0.9999988079071045,
        0.9991738796234131,
        0.9999974966049194,
        1.0
      ],
      "min": [
        -0.9999966621398926,
        -0.9991743564605713,
        -0.9999974370002747,
        1.0
      ],
      "type": "VEC4"
    },
    {
      "bufferView": 1,
      "componentType": 5126,
      "count": 846,
      "max": [
        0.9704710245132446,
        0.9082599878311157
      ],
      "min": [
        0.08886899799108505,
        0.04468299821019173
      ],
      "type": "VEC2"
    },
    {
      "bufferView": 0,
      "componentType": 5125,
      "count": 4320,
      "type": "SCALAR"
    },
    {
      "bufferView": 2,
      "byteOffset": 20304,
      "componentType": 5126,
      "count": 385,
      "max": [
        0.6392880082130432,
        0.5020059943199158,
        0.6398280262947083
      ],
      "min": [
        -0.6403669714927673,
        0.39497798681259155,
        -0.6348950266838074
      ],
      "type": "VEC3"
    },
    {
      "bufferView": 2,
      "byteOffset": 24924,
      "componentType": 5126,
      "count": 385,
      "max": [
        0.7991581559181213,
        1.0,
        0.7985643744468689
      ],
      "min": [
        -0.7991482019424438,
        0.6010253429412842,
        -0.7985252737998962
      ],
      "type": "VEC3"
    },
    {
      "bufferView": 3,
      "byteOffset": 13536,
      "componentType": 5126,
      "count": 385,
      "max": [
        0.18718232214450836,
        0.7991123199462891,
        -0.6009936928749084,
        1.0
      ],
      "min": [
        -0.1892542541027069,
        -0.7991137504577637,
        -1.0,
        1.0
      ],
      "type": "VEC4"
    },
    {
      "bufferView": 1,
      "byteOffset": 6768,
      "componentType": 5126,
      "count": 385,
      "max": [
        0.6044080257415771,
        0.9732969999313354
      ],
      "min": [
        0.3496119976043701,
        0.7176740169525146
      ],
      "type": "VEC2"
    },
    {
      "bufferView": 0,
      "byteOffset": 17280,
      "componentType": 5125,
      "count": 2208,
      "type": "SCALAR"
    },
    {
      "bufferView": 2,
      "byteOffset": 29544,
      "componentType": 5126,
      "count": 1582,
      "max": [
        0.9134200215339661,
        0.6751319766044617,
        0.9164239764213562
      ],
      "min": [
        -0.9141960144042969,
        -0.42900198698043823,
        -0.911191999912262
      ],
      "type": "VEC3"
    },
    {
      "bufferView": 2,
      "byteOffset": 48528,
      "componentType": 5126,
      "count": 1582,
      "max": [
        0.9980357885360718,
        0.9996840953826904,
        0.9980357885360718
      ],
      "min": [
        -0.9980345368385315,
        -1.0,
        -0.9980344772338867
      ],
      "type": "VEC3"
    },
    {
      "bufferView": 3,
      "byteOffset": 19696,
      "componentType": 5126,
      "count": 1582,
      "max": [
        0.9988779425621033,
        0.9980447888374329,
        0.9910477995872498,
        1.0
      ],
      "min": [
        -0.9950165748596191,
        -0.9980499744415283,
        -0.9934925436973572,
        -1.0
      ],
      "type": "VEC4"
    },
    {
      "bufferView": 1,
      "byteOffset": 9848,
      "componentType": 5126,
      "count": 1582,
      "max": [
        0.6026179790496826,
        0.9497179985046387
      ],
      "min": [
        0.027734000235795975,
        0.11990699917078018
      ],
      "type": "VEC2"
    },
    {
      "bufferView": 0,
      "byteOffset": 26112,
      "componentType": 5125,
      "count": 8352,
      "type": "SCALAR"
    }
  ],
  "asset": {
    "extras": {
      "author": "Moons (https://sketchfab.com/mounica.choco9)",
      "license": "CC-BY-4.0 (http://creativecommons.org/licenses/by/4.0/)",
      "source": "https://sketchfab.com/3d-models/witch-cauldron-9b20291215674e2b8e304f50f33b10ed",
      "title": "witch cauldron"
    },
    "generator": "Sketchfab-12.68.0",
    "version": "2.0"
  },
  "bufferViews": [
    {
      "buffer": 0,
      "byteLength": 59520,
      "name": "floatBufferViews",
      "target": 34963
    },
    {
      "buffer": 0,
      "byteLength": 22504,
      "byteOffset": 59520,
      "byteStride": 8,
      "name": "floatBufferViews",
      "target": 34962
    },
    {
      "buffer": 0,
      "byteLength": 67512,
      "byteOffset": 82024,
      "byteStride": 12,
      "name": "floatBufferViews",
      "target": 34962
    },
    {
      "buffer": 0,
      "byteLength": 45008,
      "byteOffset": 149536,
      "byteStride": 16,
      "name": "floatBufferViews",
      "target": 34962
    }
  ],
  "buffers": [
    {
      "byteLength": 194544,
      "uri": "scene.bin"
    }
  ],
  "images": [
    {
      "uri": "textures/aiStandardSurface2SG_baseColor.jpeg"
    },
    {
      "uri": "textures/aiStandardSurface2SG_metallicRoughness.png"
    },
    {
      "uri": "textures/aiStandardSurface2SG_normal.png"
    },
    {
      "uri": "textures/aiStandardSurface1SG_baseColor.jpeg"
    },
    {
      "uri": "textures/aiStandardSurface1SG_metallicRoughness.png"
    },
    {
      "uri": "textures/aiStandardSurface1SG_normal.png"
    },
    {
      "uri": "textures/aiStandardSurface3SG_baseColor.jpeg"
    },
    {
      "uri": "textures/aiStandardSurface3SG_metallicRoughness.png"
    },
    {
      "uri": "textures/aiStandardSurface3SG_normal.png"
    }
  ],
  "materials": [
    {
      "doubleSided": true,
      "name": "aiStandardSurface2SG",
      "normalTexture": {
        "index": 2
      },
      "occlusionTexture": {
        "index": 1
      },
      "pbrMetallicRoughness": {
        "baseColorTexture": {
          "index": 0
        },
        "metallicRoughnessTexture": {
          "index": 1
        }
      }
    },
    {
      "doubleSided": true,
      "name": "aiStandardSurface1SG",
      "normalTexture": {
        "index": 5
      },
      "occlusionTexture": {
        "index": 4
      },
      "pbrMetallicRoughness": {
        "baseColorTexture": {
          "index": 3
        },
        "metallicRoughnessTexture": {
          "index": 4
        }
      }
    },
    {
      "doubleSided": true,
      "name": "aiStandardSurface3SG",
      "normalTexture": {
        "index": 8
      },
      "occlusionTexture": {
        "index": 7
      },
      "pbrMetallicRoughness": {
        "baseColorTexture": {
          "index": 6
        },
        "metallicRoughnessTexture": {
          "index": 7
        }
      }
    }
  ],
  "meshes": [
    {
      "name": "defaultMaterial",
      "primitives": [
        {
          "attributes": {
            "NORMAL": 1,
            "POSITION": 0,
            "TANGENT": 2,
            "TEXCOORD_0": 3
          },
          "indices": 4,
          "material": 2,
          "mode": 4
        }
      ]
    },
    {
      "name": "defaultMaterial",
      "primitives": [
        {
          "attributes": {
            "NORMAL": 6,
            "POSITION": 5,
            "TANGENT": 7,
            "TEXCOORD_0": 8
          },
          "indices": 9,
          "material": 1,
          "mode": 4
        }
      ]
    },
    {
      "name": "defaultMaterial",
      "primitives": [
        {
          "attributes": {
            "NORMAL": 11,
            "POSITION": 10,
            "TANGENT": 12,
            "TEXCOORD_0": 13
          },
          "indices": 14,
          "material": 0,
          "mode": 4
        }
      ]
    }
  ],
  "nodes": [
    {
      "children": [
        1
      ],
      "matrix": [
        1.0,
        0.0,
        0.0,
        0.0,
        0.0,
        2.220446049250313e-16,
        -1.0,
        0.0,
        0.0,
        1.0,
        2.220446049250313e-16,
        0.0,
        0.0,
        0.0,
        0.0,
        1.0
      ],
      "name": "Sketchfab_model"
    },
    {
      "children": [
        2,
        4,
        6
      ],
      "matrix": [
        1.0,
        0.0,
        0.0,
        0.0,
        0.0,
        -4.371139006309477e-08,
        0.999999999999999,
        0.0,
        0.0,
        -0.999999999999999,
        -4.371139006309477e-08,
        0.0,
        0.0,
        0.0,
        0.0,
        1.0
      ],
      "name": "Collada visual scene group"
    },
    {
      "children": [
        3
      ],
      "name": "g"
    },
    {
      "mesh": 0,
      "name": "defaultMaterial"
    },
    {
      "children": [
        5
      ],
      "name": "g"
    },
    {
      "mesh": 1,
      "name": "defaultMaterial"
    },
    {
      "children": [
        7
      ],
      "name": "g"
    },
    {
      "mesh": 2,
      "name": "defaultMaterial"
    }
  ],
  "samplers": [
    {
      "magFilter": 9729,
      "minFilter": 9987,
      "wrapS": 10497,
      "wrapT": 10497
    }
  ],
  "scene": 0,
  "scenes": [
    {
      "name": "Sketchfab_Scene",
      "nodes": [
        0
      ]
    }
  ],
  "textures": [
    {
      "sampler": 0,
      "source": 0
    },
    {
      "sampler": 0,
      "source": 1
    },
    {
      "sampler": 0,
      "source": 2
    },
    {
      "sampler": 0,
      "source": 3
    },
    {
      "sampler": 0,
      "source": 4
    },
    {
      "sampler": 0,
      "source": 5
    },
    {
      "sampler": 0,
      "source": 6
    },
    {
      "sampler": 0,
      "source": 7
    },
    {
      "sampler": 0,
      "source": 8
    }
  ]
}
