{
  "accessors": [
    {
      "bufferView": 2,
      "componentType": 5126,
      "count": 10249,
      "max": [
        0.041892871260643005,
        0.11023799329996109,
        0.07078348845243454
      ],
      "min": [
        -0.041337091475725174,
        -0.10964082926511765,
        -0.07111986726522446
      ],
      "type": "VEC3"
    },
    {
      "bufferView": 2,
      "byteOffset": 122988,
      "componentType": 5126,
      "count": 10249,
      "max": [
        0.9999317526817322,
        0.9997499585151672,
        0.9998440742492676
      ],
      "min": [
        -0.9999578595161438,
        -1.0,
        -0.9998001456260681
      ],
      "type": "VEC3"
    },
    {
      "bufferView": 3,
      "componentType": 5126,
      "count": 10249,
      "max": [
        0.9999911785125732,
        0.999884843826294,
        0.9996195435523987,
        1.0
      ],
      "min": [
        -0.9998407363891602,
        -0.9998648166656494,
        -0.9998871088027954,
        -1.0
      ],
      "type": "VEC4"
    },
    {
      "bufferView": 1,
      "componentType": 5126,
      "count": 10249,
      "max": [
        0.9980400204658508,
        0.9980499744415283
      ],
      "min": [
        0.0019499999471008778,
        0.05620002746582031
      ],
      "type": "VEC2"
    },
    {
      "bufferView": 1,
      "byteOffset": 81992,
      "componentType": 5126,
      "count": 10249,
      "max": [
        0.9980400204658508,
        0.9980499744415283
      ],
      "min": [
        0.0019499999471008778,
        0.05620002746582031
      ],
      "type": "VEC2"
    },
    {
      "bufferView": 0,
      "componentType": 5125,
      "count": 57444,
      "type": "SCALAR"
    }
  ],
  "asset": {
    "extras": {
      "author": "David Wigforss (https://sketchfab.com/dwigfor)",
      "license": "CC-BY-NC-4.0 (http://creativecommons.org/licenses/by-nc/4.0/)",
      "source": "https://sketchfab.com/3d-models/raven-on-skull-ddf09ffffee44391b871e84e2492974a",
      "title": "Raven On Skull"
    },
    "generator": "Sketchfab-15.36.0",
    "version": "2.0"
  },
  "bufferViews": [
    {
      "buffer": 0,
      "byteLength": 229776,
      "name": "floatBufferViews",
      "target": 34963
    },
    {
      "buffer": 0,
      "byteLength": 163984,
      "byteOffset": 229776,
      "byteStride": 8,
      "name": "floatBufferViews",
      "target": 34962
    },
    {
      "buffer": 0,
      "byteLength": 245976,
      "byteOffset": 393760,
      "byteStride": 12,
      "name": "floatBufferViews",
      "target": 34962
    },
    {
      "buffer": 0,
      "byteLength": 163984,
      "byteOffset": 639736,
      "byteStride": 16,
      "name": "floatBufferViews",
      "target": 34962
    }
  ],
  "buffers": [
    {
      "byteLength": 803720,
      "uri": "scene.bin"
    }
  ],
  "images": [
    {
      "uri": "textures/MAT_Prop_SkeletonInCoffinInsidePumpkin_baseColor.png"
    },
    {
      "uri": "textures/MAT_Prop_SkeletonInCoffinInsidePumpkin_normal.png"
    }
  ],
  "materials": [
    {
      "doubleSided": true,
      "name": "MAT_Prop_SkeletonInCoffinInsidePumpkin",
      "normalTexture": {
        "index": 1
      },
      "pbrMetallicRoughness": {
        "baseColorTexture": {
          "index": 0
        },
        "metallicFactor": 0.0,
        "roughnessFactor": 0.9577051494623774
      }
    }
  ],
  "meshes": [
    {
      "name": "geo1_MAT_Prop_SkeletonInCoffinInsidePumpkin_0",
      "primitives": [
        {
          "attributes": {
            "NORMAL": 1,
            "POSITION": 0,
            "TANGENT": 2,
            "TEXCOORD_0": 3,
            "TEXCOORD_1": 4
          },
          "indices": 5,
          "material": 0,
          "mode": 4
        }
      ]
    }
  ],
  "nodes": [
    {
      "children": [
        1
      ],
      "matrix": [
        1.0,
        0.0,
        0.0,
        0.0,
        0.0,
        2.220446049250313e-16,
        -1.0,
        0.0,
        0.0,
        1.0,
        2.220446049250313e-16,
        0.0,
        0.0,
        0.0,
        0.0,
        1.0
      ],
      "name": "Sketchfab_model"
    },
    {
      "children": [
        2
      ],
      "matrix": [
        0.009999999776482582,
        0.0,
        0.0,
        0.0,
        0.0,
        0.0,
        0.009999999776482582,
        0.0,
        0.0,
        -0.009999999776482582,
        0.0,
        0.0,
        0.0,
        0.0,
        0.0,
        1.0
      ],
      "name": "mesh.fbx"
    },
    {
      "children": [
        3
      ],
      "name": "RootNode"
    },
    {
      "children": [
        4
      ],
      "name": "geo1"
    },
    {
      "mesh": 0,
      "name": "geo1_MAT_Prop_SkeletonInCoffinInsidePumpkin_0"
    }
  ],
  "samplers": [
    {
      "magFilter": 9729,
      "minFilter": 9987,
      "wrapS": 10497,
      "wrapT": 10497
    }
  ],
  "scene": 0,
  "scenes": [
    {
      "name": "Sketchfab_Scene",
      "nodes": [
        0
      ]
    }
  ],
  "textures": [
    {
      "sampler": 0,
      "source": 0
    },
    {
      "sampler": 0,
      "source": 1
    }
  ]
}
