{
  "accessors": [
    {
      "bufferView": 3,
      "componentType": 5126,
      "count": 1591,
      "max": [
        2.2871196269989014,
        0.4011886715888977,
        0.39715880155563354
      ],
      "min": [
        1.2622572183609009,
        -0.16064049303531647,
        0.16037851572036743
      ],
      "type": "VEC3"
    },
    {
      "bufferView": 3,
      "byteOffset": 19092,
      "componentType": 5126,
      "count": 1591,
      "max": [
        1.0,
        0.9999995231628418,
        0.9996296763420105
      ],
      "min": [
        -0.9827662706375122,
        -0.9999924898147583,
        -0.9996296763420105
      ],
      "type": "VEC3"
    },
    {
      "bufferView": 2,
      "componentType": 5126,
      "count": 1591,
      "max": [
        0.9772716164588928,
        0.9838060140609741
      ],
      "min": [
        0.00035175177617929876,
        0.019571423530578613
      ],
      "type": "VEC2"
    },
    {
      "bufferView": 1,
      "componentType": 5125,
      "count": 6468,
      "type": "SCALAR"
    },
    {
      "bufferView": 5,
      "componentType": 5126,
      "count": 26,
      "max": [
        1.7722707986831665,
        1.7722705602645874,
        0.1106816902756691,
        0.0,
        0.8964561820030212,
        1.4595996141433716,
        1.772216558456421,
        0.0,
        1.772270917892456,
        0.7772504687309265,
        1.7722710371017456,
        0.0,
        2.865550994873047,
        5.450876235961914,
        2.9901328086853027,
        1.0
      ],
      "min": [
        -1.7722707986831665,
        -1.772270917892456,
        -1.7569267749786377,
        0.0,
        -0.8964561820030212,
        -1.7722711563110352,
        -1.772270917892456,
        0.0,
        -1.77159583568573,
        -0.7772504687309265,
        -1.7722710371017456,
        0.0,
        -2.8655507564544678,
        -3.994154691696167,
        -0.628540575504303,
        1.0
      ],
      "type": "MAT4"
    },
    {
      "bufferView": 0,
      "componentType": 5123,
      "count": 1591,
      "type": "VEC4"
    },
    {
      "bufferView": 4,
      "componentType": 5126,
      "count": 1591,
      "max": [
        1.0,
        0.49021342396736145,
        0.2936364412307739,
        0.20824742317199707
      ],
      "min": [
        0.2912101745605469,
        0.0,
        0.0,
        0.0
      ],
      "type": "VEC4"
    }
  ],
  "asset": {
    "extras": {
      "author": "Cabritta (https://sketchfab.com/Cabritta)",
      "license": "CC-BY-4.0 (http://creativecommons.org/licenses/by/4.0/)",
      "source": "https://sketchfab.com/3d-models/black-cat-8d09d2fbabab443c9b451b3d2a3048f0",
      "title": "Black Cat"
    },
    "generator": "Sketchfab-12.67.0",
    "version": "2.0"
  },
  "bufferViews": [
    {
      "buffer": 0,
      "byteLength": 12728,
      "byteStride": 8,
      "name": "shortBufferViews",
      "target": 34962
    },
    {
      "buffer": 0,
      "byteLength": 25872,
      "byteOffset": 12728,
      "name": "floatBufferViews",
      "target": 34963
    },
    {
      "buffer": 0,
      "byteLength": 12728,
      "byteOffset": 38600,
      "byteStride": 8,
      "name": "floatBufferViews",
      "target": 34962
    },
    {
      "buffer": 0,
      "byteLength": 38184,
      "byteOffset": 51328,
      "byteStride": 12,
      "name": "floatBufferViews",
      "target": 34962
    },
    {
      "buffer": 0,
      "byteLength": 25456,
      "byteOffset": 89512,
      "byteStride": 16,
      "name": "floatBufferViews",
      "target": 34962
    },
    {
      "buffer": 0,
      "byteLength": 1664,
      "byteOffset": 114968,
      "name": "floatBufferViews"
    }
  ],
  "buffers": [
    {
      "byteLength": 116632,
      "uri": "scene.bin"
    }
  ],
  "images": [
    {
      "uri": "textures/gatim_baseColor.jpeg"
    }
  ],
  "materials": [
    {
      "name": "gatim",
      "pbrMetallicRoughness": {
        "baseColorTexture": {
          "index": 0
        },
        "metallicFactor": 0.0
      }
    }
  ],
  "meshes": [
    {
      "name": "Object_0",
      "primitives": [
        {
          "attributes": {
            "JOINTS_0": 5,
            "NORMAL": 1,
            "POSITION": 0,
            "TEXCOORD_0": 2,
            "WEIGHTS_0": 6
          },
          "indices": 3,
          "material": 0,
          "mode": 4
        }
      ]
    }
  ],
  "nodes": [
    {
      "children": [
        1
      ],
      "matrix": [
        1.0,
        0.0,
        0.0,
        0.0,
        0.0,
        2.220446049250313e-16,
        -1.0,
        0.0,
        0.0,
        1.0,
        2.220446049250313e-16,
        0.0,
        0.0,
        0.0,
        0.0,
        1.0
      ],
      "name": "Sketchfab_model"
    },
    {
      "children": [
        2
      ],
      "name": "root"
    },
    {
      "children": [
        3
      ],
      "matrix": [
        1.0,
        0.0,
        0.0,
        0.0,
        0.0,
        2.220446049250313e-16,
        1.0,
        0.0,
        0.0,
        -1.0,
        2.220446049250313e-16,
        0.0,
        0.0,
        0.0,
        0.0,
        1.0
      ],
      "name": "GLTF_SceneRootNode"
    },
    {
      "children": [
        4
      ],
      "matrix": [
        0.0,
        0.0,
        0.5642478466033936,
        0.0,
        -0.5642478466033936,
        0.0,
        0.0,
        0.0,
        0.0,
        -0.5642478466033936,
        0.0,
        0.0,
        3.0756452083587646,
        0.15999099612236023,
        0.2783207893371582,
        1.0
      ],
      "name": "Armature.002_26"
    },
    {
      "children": [
        5,
        7,
        6
      ],
      "name": "GLTF_created_0"
    },
    {
      "children": [
        8
      ],
      "name": "GLTF_created_0_rootJoint"
    },
    {
      "name": "Gatinho_25"
    },
    {
      "mesh": 0,
      "name": "Object_7",
      "skin": 0
    },
    {
      "children": [
        9,
        20
      ],
      "name": "main_24",
      "scale": [
        7.4105024337768555,
        7.4105024337768555,
        7.4105024337768555
      ],
      "translation": [
        -0.7544323205947876,
        -19.492095947265625,
        -3.0621814727783203
      ]
    },
    {
      "children": [
        10,
        14,
        17
      ],
      "name": "chest_10",
      "rotation": [
        0.30951666831970215,
        0.05695617198944092,
        -0.01322622038424015,
        0.9490945935249329
      ],
      "scale": [
        0.9999999403953552,
        1.0,
        1.0
      ],
      "translation": [
        1.64388112011693e-08,
        2.490628957748413,
        0.02017156034708023
      ]
    },
    {
      "children": [
        11
      ],
      "name": "neck_3",
      "rotation": [
        -0.08811178058385849,
        0.0764523595571518,
        0.013042189180850983,
        0.9930867552757263
      ],
      "scale": [
        1.0,
        0.9999998807907104,
        0.9999999403953552
      ],
      "translation": [
        0.0,
        0.3075094223022461,
        0.0
      ]
    },
    {
      "children": [
        12,
        13
      ],
      "name": "head_2",
      "rotation": [
        -0.3456578850746155,
        -0.07307987660169601,
        -0.013006550259888172,
        0.9354201555252075
      ],
      "scale": [
        0.9999999403953552,
        1.0,
        1.0
      ],
      "translation": [
        -8.881784197001252e-16,
        0.1617565155029297,
        -1.1175870895385742e-08
      ]
    },
    {
      "name": "ear.l_0",
      "rotation": [
        -0.5265952944755554,
        -0.06683718413114548,
        -0.31781935691833496,
        0.7856341600418091
      ],
      "scale": [
        0.9999999403953552,
        0.9999999403953552,
        0.9999999403953552
      ],
      "translation": [
        0.06659554690122604,
        0.2315952181816101,
        -0.05100493133068085
      ]
    },
    {
      "name": "ear.r_1",
      "rotation": [
        -0.5032726526260376,
        0.05220801755785942,
        0.3109803795814514,
        0.8045384883880615
      ],
      "scale": [
        0.9999999403953552,
        1.0,
        0.9999999403953552
      ],
      "translation": [
        -0.06659553945064545,
        0.2315952181816101,
        -0.05100493133068085
      ]
    },
    {
      "children": [
        15
      ],
      "name": "front shoulder.l_6",
      "rotation": [
        -0.02808210253715515,
        0.6630980968475342,
        -0.029190631583333015,
        0.7474358677864075
      ],
      "scale": [
        0.9999999403953552,
        1.0,
        0.9999999403953552
      ],
      "translation": [
        0.12326397746801376,
        0.37249767780303955,
        0.03921263664960861
      ]
    },
    {
      "children": [
        16
      ],
      "name": "front leg.l_5",
      "rotation": [
        -0.04021231457591057,
        0.6111587285995483,
        -0.15838012099266052,
        0.7744570970535278
      ],
      "scale": [
        1.0,
        1.0000001192092896,
        1.0000001192092896
      ],
      "translation": [
        -5.251569401565348e-09,
        0.22958555817604065,
        -2.9258586664582253e-09
      ]
    },
    {
      "name": "front paw.l_4",
      "rotation": [
        0.11322192847728729,
        -0.9663496613502502,
        -0.15937739610671997,
        0.16717657446861267
      ],
      "scale": [
        1.0000001192092896,
        1.0,
        1.000000238418579
      ],
      "translation": [
        -1.862645149230957e-09,
        0.27431803941726685,
        1.885928213596344e-08
      ]
    },
    {
      "children": [
        18
      ],
      "name": "front shoulder.r_9",
      "rotation": [
        0.0645928829908371,
        -0.7703790664672852,
        0.12960462272167206,
        0.6209238767623901
      ],
      "scale": [
        0.9999998807907104,
        0.9999999403953552,
        1.0
      ],
      "translation": [
        -0.1025908961892128,
        0.3052411675453186,
        -0.007717778906226158
      ]
    },
    {
      "children": [
        19
      ],
      "name": "front leg.r_8",
      "rotation": [
        0.023326728492975235,
        -0.7301940321922302,
        0.07174763083457947,
        0.679061770439148
      ],
      "scale": [
        1.0,
        1.0000001192092896,
        1.0
      ],
      "translation": [
        5.251569401565348e-09,
        0.22958555817604065,
        -2.9258586664582253e-09
      ]
    },
    {
      "name": "front paw.r_7",
      "rotation": [
        -0.02316696010529995,
        -0.9682654738426208,
        -0.18340681493282318,
        0.16818854212760925
      ],
      "scale": [
        1.0,
        0.9999999403953552,
        1.0000001192092896
      ],
      "translation": [
        1.862645149230957e-09,
        0.27431803941726685,
        1.885928213596344e-08
      ]
    },
    {
      "children": [
        21,
        27,
        30
      ],
      "name": "hip_23",
      "rotation": [
        -0.9633358716964722,
        0.011274812743067741,
        0.039966899901628494,
        0.2650653123855591
      ],
      "scale": [
        1.000000238418579,
        1.0000067949295044,
        1.0000237226486206
      ],
      "translation": [
        1.0136020023310266e-08,
        2.490628957748413,
        0.020171524956822395
      ]
    },
    {
      "children": [
        22
      ],
      "name": "tail 1_16",
      "rotation": [
        -0.04667166620492935,
        0.0,
        0.0,
        0.9989103078842163
      ],
      "scale": [
        1.0,
        1.0000001192092896,
        1.0
      ],
      "translation": [
        0.0,
        0.34668484330177307,
        6.51925802230835e-09
      ]
    },
    {
      "children": [
        23
      ],
      "name": "tail2_15",
      "rotation": [
        0.2559317350387573,
        0.12046297639608383,
        0.10203898698091507,
        0.9537168741226196
      ],
      "scale": [
        0.9999999403953552,
        1.0,
        1.0
      ],
      "translation": [
        0.0,
        0.13463857769966125,
        -1.5723315982540953e-09
      ]
    },
    {
      "children": [
        24
      ],
      "name": "tail 3_14",
      "rotation": [
        -0.0977969840168953,
        0.05468584597110748,
        0.04262251779437065,
        0.9927882552146912
      ],
      "scale": [
        0.9999999403953552,
        0.9999999403953552,
        1.0
      ],
      "translation": [
        0.0,
        0.11910489946603775,
        -4.926690166939807e-10
      ]
    },
    {
      "children": [
        25
      ],
      "name": "tail4_13",
      "rotation": [
        0.2601194381713867,
        0.03854065015912056,
        0.06941181421279907,
        0.9623068571090698
      ],
      "translation": [
        0.0,
        0.12773337960243225,
        -1.1526921639415377e-09
      ]
    },
    {
      "children": [
        26
      ],
      "name": "tail 5_12",
      "rotation": [
        -0.005392071325331926,
        -0.010750707238912582,
        0.03401762247085571,
        0.9993489384651184
      ],
      "scale": [
        1.0,
        0.9999999403953552,
        0.9999999403953552
      ],
      "translation": [
        0.0,
        0.13981524109840393,
        -8.653060490360076e-10
      ]
    },
    {
      "name": "tail 6_11",
      "rotation": [
        0.011078884825110435,
        0.004715199116617441,
        0.005090825259685516,
        0.9999145269393921
      ],
      "scale": [
        0.9999999403953552,
        0.9999999403953552,
        0.9999999403953552
      ],
      "translation": [
        0.0,
        0.16744032502174377,
        -5.56397594664304e-10
      ]
    },
    {
      "children": [
        28
      ],
      "name": "back thigh.l_19",
      "rotation": [
        -0.6754363775253296,
        0.27033358812332153,
        -0.6447916030883789,
        0.23441284894943237
      ],
      "scale": [
        1.0,
        0.9999999403953552,
        0.9999998211860657
      ],
      "translation": [
        0.13497918844223022,
        0.2329588234424591,
        -0.050646618008613586
      ]
    },
    {
      "children": [
        29
      ],
      "name": "back leg.l_18",
      "rotation": [
        -0.235002800822258,
        0.6754052042961121,
        0.23995256423950195,
        0.6565244197845459
      ],
      "scale": [
        0.9999999403953552,
        1.0,
        1.0
      ],
      "translation": [
        -1.7531380080981762e-07,
        0.24837549030780792,
        8.396501272045498e-10
      ]
    },
    {
      "name": "back paw.l_17",
      "rotation": [
        0.009448161348700523,
        0.5998702645301819,
        0.80002361536026,
        -0.0053498102352023125
      ],
      "scale": [
        0.9999998807907104,
        0.9999997615814209,
        0.9999998807907104
      ],
      "translation": [
        -2.0954757928848267e-08,
        0.2814304828643799,
        1.748558133840561e-07
      ]
    },
    {
      "children": [
        31
      ],
      "name": "back thigh.r_22",
      "rotation": [
        -0.6447914838790894,
        -0.23441284894943237,
        0.6754364371299744,
        0.27033349871635437
      ],
      "scale": [
        0.9999999403953552,
        0.9999998807907104,
        0.9999998807907104
      ],
      "translation": [
        -0.13497918844223022,
        0.2416042685508728,
        -0.03479502350091934
      ]
    },
    {
      "children": [
        32
      ],
      "name": "back leg.r_21",
      "rotation": [
        -0.235002800822258,
        -0.6754052042961121,
        -0.23995256423950195,
        0.6565244197845459
      ],
      "scale": [
        0.9999999403953552,
        1.0,
        1.0
      ],
      "translation": [
        1.7531380080981762e-07,
        0.24837549030780792,
        8.396501272045498e-10
      ]
    },
    {
      "name": "back paw.r_20",
      "rotation": [
        -0.00933022890239954,
        0.5999266505241394,
        0.7999293208122253,
        0.010687023401260376
      ],
      "scale": [
        0.9999998807907104,
        0.9999997019767761,
        0.9999998211860657
      ],
      "translation": [
        2.0954757928848267e-08,
        0.2814304828643799,
        1.748558133840561e-07
      ]
    }
  ],
  "samplers": [
    {
      "magFilter": 9729,
      "minFilter": 9987,
      "wrapS": 10497,
      "wrapT": 10497
    }
  ],
  "scene": 0,
  "scenes": [
    {
      "name": "Sketchfab_Scene",
      "nodes": [
        0
      ]
    }
  ],
  "skins": [
    {
      "inverseBindMatrices": 4,
      "joints": [
        5,
        8,
        9,
        10,
        11,
        12,
        13,
        14,
        15,
        16,
        17,
        18,
        19,
        20,
        21,
        22,
        23,
        24,
        25,
        26,
        27,
        28,
        29,
        30,
        31,
        32
      ],
      "skeleton": 5
    }
  ],
  "textures": [
    {
      "sampler": 0,
      "source": 0
    }
  ]
}
