{
  "accessors": [
    {
      "bufferView": 2,
      "componentType": 5126,
      "count": 62642,
      "max": [
        13.040855407714844,
        12.710811614990234,
        18.18396759033203
      ],
      "min": [
        -13.040567398071289,
        -14.196317672729492,
        0.34955769777297974
      ],
      "type": "VEC3"
    },
    {
      "bufferView": 2,
      "byteOffset": 751704,
      "componentType": 5126,
      "count": 62642,
      "max": [
        0.999933123588562,
        0.9989920854568481,
        0.9999723434448242
      ],
      "min": [
        -0.999933123588562,
        -0.999900221824646,
        -0.9999949932098389
      ],
      "type": "VEC3"
    },
    {
      "bufferView": 3,
      "componentType": 5126,
      "count": 62642,
      "max": [
        0.9995323419570923,
        0.9999437928199768,
        0.9998090267181396,
        1.0
      ],
      "min": [
        -1.0,
        -0.9999443888664246,
        -0.9999324679374695,
        1.0
      ],
      "type": "VEC4"
    },
    {
      "bufferView": 1,
      "componentType": 5126,
      "count": 62642,
      "max": [
        0.9875925183296204,
        0.9958979487419128
      ],
      "min": [
        0.0035996665246784687,
        0.0033975415863096714
      ],
      "type": "VEC2"
    },
    {
      "bufferView": 1,
      "byteOffset": 501136,
      "componentType": 5126,
      "count": 62642,
      "max": [
        0.9875925183296204,
        0.9958979487419128
      ],
      "min": [
        0.0035996665246784687,
        0.0033975415863096714
      ],
      "type": "VEC2"
    },
    {
      "bufferView": 1,
      "byteOffset": 1002272,
      "componentType": 5126,
      "count": 62642,
      "max": [
        0.9875925183296204,
        0.9958979487419128
      ],
      "min": [
        0.0035996665246784687,
        0.0033975415863096714
      ],
      "type": "VEC2"
    },
    {
      "bufferView": 0,
      "componentType": 5125,
      "count": 297648,
      "type": "SCALAR"
    },
    {
      "bufferView": 2,
      "byteOffset": 1503408,
      "componentType": 5126,
      "count": 836,
      "max": [
        0.5742864608764648,
        -1.1102808713912964,
        2.1607706546783447
      ],
      "min": [
        -0.5742864608764648,
        -1.4479222297668457,
        1.8318604230880737
      ],
      "type": "VEC3"
    },
    {
      "bufferView": 2,
      "byteOffset": 1513440,
      "componentType": 5126,
      "count": 836,
      "max": [
        0.9981670379638672,
        0.9987205862998962,
        1.0
      ],
      "min": [
        -0.9981670379638672,
        -0.9987205862998962,
        -1.0
      ],
      "type": "VEC3"
    },
    {
      "bufferView": 1,
      "byteOffset": 1503408,
      "componentType": 5126,
      "count": 836,
      "max": [
        1.7627832889556885,
        1.6110293865203857
      ],
      "min": [
        -0.7563949227333069,
        -0.728634238243103
      ],
      "type": "VEC2"
    },
    {
      "bufferView": 0,
      "byteOffset": 1190592,
      "componentType": 5125,
      "count": 4608,
      "type": "SCALAR"
    }
  ],
  "asset": {
    "extras": {
      "author": "laurapenwell (https://sketchfab.com/laurapenwell)",
      "license": "CC-BY-NC-4.0 (http://creativecommons.org/licenses/by-nc/4.0/)",
      "source": "https://sketchfab.com/3d-models/australian-tree-frog-bb554ccf931041629f710d4fed6edcce",
      "title": "Australian Tree Frog"
    },
    "generator": "Sketchfab-12.66.0",
    "version": "2.0"
  },
  "bufferViews": [
    {
      "buffer": 0,
      "byteLength": 1209024,
      "name": "floatBufferViews",
      "target": 34963
    },
    {
      "buffer": 0,
      "byteLength": 1510096,
      "byteOffset": 1209024,
      "byteStride": 8,
      "name": "floatBufferViews",
      "target": 34962
    },
    {
      "buffer": 0,
      "byteLength": 1523472,
      "byteOffset": 2719120,
      "byteStride": 12,
      "name": "floatBufferViews",
      "target": 34962
    },
    {
      "buffer": 0,
      "byteLength": 1002272,
      "byteOffset": 4242592,
      "byteStride": 16,
      "name": "floatBufferViews",
      "target": 34962
    }
  ],
  "buffers": [
    {
      "byteLength": 5244864,
      "uri": "scene.bin"
    }
  ],
  "images": [
    {
      "uri": "textures/Low_POly_baseColor.png"
    },
    {
      "uri": "textures/Low_POly_metallicRoughness.png"
    },
    {
      "uri": "textures/Low_POly_normal.png"
    },
    {
      "uri": "textures/eyes_base_baseColor.png"
    }
  ],
  "materials": [
    {
      "doubleSided": true,
      "name": "Low_POly",
      "normalTexture": {
        "index": 2
      },
      "pbrMetallicRoughness": {
        "baseColorTexture": {
          "index": 0
        },
        "metallicRoughnessTexture": {
          "index": 1
        }
      }
    },
    {
      "doubleSided": true,
      "name": "eyes_base",
      "pbrMetallicRoughness": {
        "baseColorTexture": {
          "index": 3
        },
        "metallicFactor": 0.0,
        "roughnessFactor": 0.8812941514760407
      }
    }
  ],
  "meshes": [
    {
      "name": "Frog Main_Low POly_0",
      "primitives": [
        {
          "attributes": {
            "NORMAL": 1,
            "POSITION": 0,
            "TANGENT": 2,
            "TEXCOORD_0": 3,
            "TEXCOORD_1": 4,
            "TEXCOORD_2": 5
          },
          "indices": 6,
          "material": 0,
          "mode": 4
        }
      ]
    },
    {
      "name": "Eyes base_eyes_base_0",
      "primitives": [
        {
          "attributes": {
            "NORMAL": 8,
            "POSITION": 7,
            "TEXCOORD_0": 9
          },
          "indices": 10,
          "material": 1,
          "mode": 4
        }
      ]
    }
  ],
  "nodes": [
    {
      "children": [
        1
      ],
      "matrix": [
        1.0,
        0.0,
        0.0,
        0.0,
        0.0,
        2.220446049250313e-16,
        -1.0,
        0.0,
        0.0,
        1.0,
        2.220446049250313e-16,
        0.0,
        0.0,
        0.0,
        0.0,
        1.0
      ],
      "name": "Sketchfab_model"
    },
    {
      "children": [
        2
      ],
      "matrix": [
        1.0,
        0.0,
        0.0,
        0.0,
        0.0,
        0.0,
        1.0,
        0.0,
        0.0,
        -1.0,
        0.0,
        0.0,
        0.0,
        0.0,
        0.0,
        1.0
      ],
      "name": "Frog_Sketchfab.fbx"
    },
    {
      "children": [
        3,
        5
      ],
      "name": "RootNode"
    },
    {
      "children": [
        4
      ],
      "matrix": [
        12.52573299407959,
        0.0,
        0.0,
        0.0,
        0.0,
        -2.040700929276125e-06,
        -12.525732994079425,
        0.0,
        0.0,
        12.525732994079425,
        -2.040700929276125e-06,
        0.0,
        0.0,
        -1.1920928955078125e-05,
        1.1920928955078125e-05,
        1.0
      ],
      "name": "Frog Main"
    },
    {
      "mesh": 0,
      "name": "Frog Main_Low POly_0"
    },
    {
      "children": [
        6
      ],
      "matrix": [
        100.0,
        0.0,
        0.0,
        0.0,
        0.0,
        -1.629206793918314e-05,
        -99.99999999999868,
        0.0,
        0.0,
        99.99999999999868,
        -1.629206793918314e-05,
        0.0,
        0.0,
        0.0,
        0.0,
        1.0
      ],
      "name": "Eyes base"
    },
    {
      "mesh": 1,
      "name": "Eyes base_eyes_base_0"
    }
  ],
  "samplers": [
    {
      "magFilter": 9729,
      "minFilter": 9987,
      "wrapS": 10497,
      "wrapT": 10497
    }
  ],
  "scene": 0,
  "scenes": [
    {
      "name": "Sketchfab_Scene",
      "nodes": [
        0
      ]
    }
  ],
  "textures": [
    {
      "sampler": 0,
      "source": 0
    },
    {
      "sampler": 0,
      "source": 1
    },
    {
      "sampler": 0,
      "source": 2
    },
    {
      "sampler": 0,
      "source": 3
    }
  ]
}
